name Run_50002_IK.mot
datacolumns 164
datarows 4
range 0.85 0.88
endheader

time	         pelvis_tilt	         pelvis_list	     pelvis_rotation	           pelvis_tx	           pelvis_ty	           pelvis_tz	       hip_flexion_r	     hip_adduction_r	      hip_rotation_r	        knee_angle_r	       ankle_angle_r	       hip_flexion_l	     hip_adduction_l	      hip_rotation_l	        knee_angle_l	       ankle_angle_l	    lumbar_extension	      lumbar_bending	     lumbar_rotation	          arm_flex_r	           arm_add_r	           arm_rot_r	        elbow_flex_r	           pro_sup_r	          arm_flex_l	           arm_add_l	           arm_rot_l	        elbow_flex_l	           pro_sup_l	    subtalar_angle_r	         mtp_angle_r	    subtalar_angle_l	         mtp_angle_l	        wrist_flex_r	         wrist_dev_r	        wrist_flex_l	         wrist_dev_l	             LASI_tx	             LASI_ty	             LASI_tz	             RASI_tx	             RASI_ty	             RASI_tz	             LPSI_tx	             LPSI_ty	             LPSI_tz	             RPSI_tx	             RPSI_ty	             RPSI_tz	             RTH1_tx	             RTH1_ty	             RTH1_tz	             RTH2_tx	             RTH2_ty	             RTH2_tz	             RTH3_tx	             RTH3_ty	             RTH3_tz	             LTH1_tx	             LTH1_ty	             LTH1_tz	             LTH2_tx	             LTH2_ty	             LTH2_tz	             LTH3_tx	             LTH3_ty	             LTH3_tz	             RTB1_tx	             RTB1_ty	             RTB1_tz	             RTB2_tx	             RTB2_ty	             RTB2_tz	             RTB3_tx	             RTB3_ty	             RTB3_tz	             LTB1_tx	             LTB1_ty	             LTB1_tz	             LTB2_tx	             LTB2_ty	             LTB2_tz	             LTB3_tx	             LTB3_ty	             LTB3_tz	             RCAL_tx	             RCAL_ty	             RCAL_tz	             RTOE_tx	             RTOE_ty	             RTOE_tz	             RMT5_tx	             RMT5_ty	             RMT5_tz	             LCAL_tx	             LCAL_ty	             LCAL_tz	             LTOE_tx	             LTOE_ty	             LTOE_tz	             LMT5_tx	             LMT5_ty	             LMT5_tz	             LACR_tx	             LACR_ty	             LACR_tz	             RACR_tx	             RACR_ty	             RACR_tz	             CLAV_tx	             CLAV_ty	             CLAV_tz	               C7_tx	               C7_ty	               C7_tz	             RUA1_tx	             RUA1_ty	             RUA1_tz	             RUA2_tx	             RUA2_ty	             RUA2_tz	             RUA3_tx	             RUA3_ty	             RUA3_tz	             RLEL_tx	             RLEL_ty	             RLEL_tz	             RMEL_tx	             RMEL_ty	             RMEL_tz	             LUA1_tx	             LUA1_ty	             LUA1_tz	             LUA2_tx	             LUA2_ty	             LUA2_tz	             LUA3_tx	             LUA3_ty	             LUA3_tz	             LLEL_tx	             LLEL_ty	             LLEL_tz	             LMEL_tx	             LMEL_ty	             LMEL_tz	      RFAsuperior_tx	      RFAsuperior_ty	      RFAsuperior_tz	        RFAradius_tx	        RFAradius_ty	        RFAradius_tz	          RFAulna_tx	          RFAulna_ty	          RFAulna_tz	      LFAsuperior_tx	      LFAsuperior_ty	      LFAsuperior_tz	        LFAradius_tx	        LFAradius_ty	        LFAradius_tz	          LFAulna_tx	          LFAulna_ty	          LFAulna_tz	
0.85	        -15.73600941	          2.09661355	          6.40432632	          0.99475478	          0.99095974	         -0.35751644	         -2.77468383	          2.22095275	         -3.52392342	        -66.97129809	        -20.00990096	         47.05127319	         11.02886599	         -1.58153198	        -22.51580669	          4.61358517	          5.24322436	         -2.80434715	         10.22461492	        -20.43857639	        -24.96561250	         -9.58607035	        117.39728943	        114.42855670	        -54.65076849	        -13.02204665	        -18.35546854	        116.81649387	        108.69326515	          0.00000000	          0.00000000	          0.00000000	          0.00000000	          0.00000000	          0.00000000	          0.00000000	          0.00000000	          1.00032434	          1.02727143	         -0.46396290	          1.02777438	          1.01658321	         -0.24018215	          0.84579270	          1.09703453	         -0.39423805	          0.86280025	          1.08861261	         -0.28200567	          0.93270147	          0.90408156	         -0.18305258	          0.83224125	          0.78218809	         -0.20224468	          0.81288992	          0.62821100	         -0.22496824	          0.96016216	          0.92552400	         -0.53815903	          0.96383112	          0.76022946	         -0.48141338	          1.07221088	          0.66355056	         -0.48281150	          0.64218542	          0.45228117	         -0.29543299	          0.58575342	          0.52020584	         -0.22273261	          0.44885412	          0.45126833	         -0.29235211	          1.20982522	          0.47822451	         -0.41653932	          1.13977294	          0.35268363	         -0.44804221	          1.21977665	          0.26280389	         -0.38567374	          0.33688255	          0.55710320	         -0.26839143	          0.26656913	          0.33377328	         -0.33581413	          0.24145533	          0.36814900	         -0.23978512	          1.12783024	          0.10314131	         -0.33732323	          1.35722193	          0.16073375	         -0.33863782	          1.31420302	          0.08361728	         -0.40930899	          0.94768236	          1.53817492	         -0.49774437	          1.04512629	          1.50358779	         -0.19843558	          1.05774850	          1.47579172	         -0.33367000	          0.92870848	          1.54548171	         -0.33139481	          0.96912499	          1.40991950	         -0.10096768	          1.02382913	          1.35459017	         -0.08853936	          0.98130082	          1.27925438	         -0.02409742	          0.96494658	          1.21875839	          0.01351048	          0.93586906	          1.18779352	         -0.06670183	          0.81813522	          1.49620590	         -0.51241970	          0.80388168	          1.42171996	         -0.55243276	          0.70796306	          1.39796914	         -0.53956996	          0.65810644	          1.34403783	         -0.55109552	          0.67173597	          1.31393500	         -0.46777348	          1.06033820	          1.18455857	         -0.03109191	          1.16336147	          1.18745908	         -0.18057519	          1.17941252	          1.14109110	         -0.13239967	          0.69406056	          1.27256545	         -0.57512889	          0.86958612	          1.19292166	         -0.55758929	          0.82654783	          1.14803305	         -0.59339841	
0.86	        -15.56694544	          1.86692873	          6.58516885	          0.99444847	          0.98477817	         -0.35711605	         -0.44374765	          2.15085032	         -3.76413831	        -74.70409750	        -17.14345967	         45.48812988	         10.77092859	         -2.04690827	        -21.87873718	          2.27166172	          5.00429990	         -2.80911183	          9.20078190	        -21.35278561	        -24.58579336	         -9.94065951	        114.23907996	        113.88295141	        -52.79536965	        -12.89794502	        -17.96055919	        116.12715272	        108.88518980	          0.00000000	          0.00000000	          0.00000000	          0.00000000	          0.00000000	          0.00000000	          0.00000000	          0.00000000	          0.99984545	          1.02088387	         -0.46348242	          1.02783014	          1.01197069	         -0.23993770	          0.84542661	          1.09077447	         -0.39348487	          0.86287533	          1.08213996	         -0.28099242	          0.93528520	          0.89692388	         -0.18370500	          0.83741965	          0.77294067	         -0.20222278	          0.82494472	          0.61816469	         -0.22341935	          0.95672869	          0.91661176	         -0.53579770	          0.95731902	          0.75198157	         -0.47947354	          1.06357290	          0.65254868	         -0.48139534	          0.65591299	          0.45143919	         -0.29344141	          0.60533072	          0.52666221	         -0.22297449	          0.46330207	          0.46804091	         -0.28955656	          1.19852399	          0.46490580	         -0.41564276	          1.12759761	          0.33973797	         -0.44723284	          1.20669404	          0.24920903	         -0.38516413	          0.35845214	          0.58451129	         -0.26997550	          0.27510818	          0.36195010	         -0.32400549	          0.25515510	          0.40269975	         -0.22903688	          1.11174358	          0.09586934	         -0.33479001	          1.34275428	          0.14057477	         -0.33987068	          1.29915986	          0.06298084	         -0.40974861	          0.94895408	          1.53056277	         -0.50060569	          1.04398532	          1.49725946	         -0.19929378	          1.05822890	          1.46964098	         -0.33489190	          0.92890824	          1.53986914	         -0.33387006	          0.96414874	          1.40549986	         -0.10286286	          1.01749507	          1.34993273	         -0.08771169	          0.97290615	          1.27530198	         -0.02403418	          0.95486511	          1.21552435	          0.01365861	          0.92714399	          1.18415615	         -0.06679773	          0.81931020	          1.48623292	         -0.51788431	          0.80809793	          1.40948755	         -0.55652849	          0.71316281	          1.38193397	         -0.54524378	          0.66467172	          1.32738461	         -0.55651153	          0.67792356	          1.29882365	         -0.47272437	          1.04994059	          1.17523933	         -0.02655843	          1.15887330	          1.16671330	         -0.17216806	          1.16957308	          1.12084332	         -0.12213233	          0.70220605	          1.25636216	         -0.57973771	          0.87914028	          1.18062229	         -0.55945460	          0.83744202	          1.13507430	         -0.59580382	
0.87	        -15.58196281	          1.69628668	          6.55694684	          0.99382815	          0.97764190	         -0.35674630	          2.28349347	          1.82315960	         -3.88041030	        -82.20199253	        -13.87034239	         44.61254439	         10.37006371	         -3.27417930	        -23.36936449	          0.64452227	          5.00770074	         -2.83045662	          8.28938001	        -22.33547093	        -24.27544768	        -10.20722583	        110.93322688	        113.89731185	        -50.80669395	        -12.88627857	        -17.53435295	        115.29587776	        109.35002621	          0.00000000	          0.00000000	          0.00000000	          0.00000000	          0.00000000	          0.00000000	          0.00000000	          0.00000000	          0.99974113	          1.01366099	         -0.46354440	          1.02757111	          1.00663805	         -0.23920171	          0.84543560	          1.08367899	         -0.39327217	          0.86265386	          1.07523716	         -0.28039110	          0.93652324	          0.88989343	         -0.18449133	          0.84242993	          0.76331454	         -0.20306759	          0.83735856	          0.60780364	         -0.22148462	          0.95377036	          0.90675374	         -0.53359522	          0.95132767	          0.74258584	         -0.47802690	          1.05585185	          0.64126048	         -0.48084508	          0.67221071	          0.44942269	         -0.28989048	          0.62742421	          0.53142775	         -0.22248483	          0.48187651	          0.48195942	         -0.28626612	          1.18654317	          0.45003600	         -0.41544424	          1.11204917	          0.32667541	         -0.44605957	          1.18749705	          0.23423841	         -0.38301462	          0.38313720	          0.60759441	         -0.27152920	          0.29083202	          0.38588832	         -0.31262673	          0.27552553	          0.43197881	         -0.21906533	          1.08493892	          0.09294620	         -0.33023083	          1.31813258	          0.11561923	         -0.33925673	          1.27214547	          0.04424927	         -0.41188870	          0.95025178	          1.52159303	         -0.50382161	          1.04216875	          1.49042345	         -0.19974479	          1.05862207	          1.46280762	         -0.33595409	          0.92873286	          1.53300056	         -0.33648797	          0.95860819	          1.40011150	         -0.10456971	          1.01045194	          1.34372042	         -0.08729495	          0.96358309	          1.27047844	         -0.02397187	          0.94379813	          1.21185188	          0.01376020	          0.91738604	          1.17971611	         -0.06677156	          0.82066636	          1.47469891	         -0.52397313	          0.81285677	          1.39581212	         -0.56118751	          0.71889636	          1.36469227	         -0.55195176	          0.67201534	          1.30946641	         -0.56319866	          0.68456194	          1.28218739	         -0.47884836	          1.03819382	          1.16590173	         -0.02160987	          1.15171908	          1.14438009	         -0.16293303	          1.15721969	          1.09984063	         -0.11087960	          0.71138109	          1.23897594	         -0.58553986	          0.88949875	          1.16720448	         -0.56163921	          0.84946293	          1.12112205	         -0.59903285	
0.88	        -15.77815790	          1.78717594	          6.53087519	          0.99247563	          0.96993029	         -0.35678236	          5.44109356	          0.96499090	         -4.01944353	        -89.46753678	        -10.59966493	         44.62010643	         10.23999031	         -4.86840974	        -27.42092627	          1.58560791	          5.14609524	         -3.13136237	          7.26217493	        -23.22759512	        -23.98121350	        -10.34354424	        107.47073430	        114.65249560	        -48.66077382	        -12.95770546	        -17.07695186	        114.27155719	        110.00963526	          0.00000000	          0.00000000	          0.00000000	          0.00000000	          0.00000000	          0.00000000	          0.00000000	          0.00000000	          0.99931661	          1.00624947	         -0.46396146	          1.02709016	          1.00042164	         -0.23805573	          0.84512318	          1.07639511	         -0.39341934	          0.86170293	          1.06804071	         -0.28013157	          0.93709252	          0.88291316	         -0.18541934	          0.84801133	          0.75337281	         -0.20440104	          0.85065342	          0.59708235	         -0.21917698	          0.95090162	          0.89705530	         -0.53210597	          0.94599110	          0.73320379	         -0.47760584	          1.04986610	          0.63090339	         -0.48163893	          0.69103733	          0.44617740	         -0.28476817	          0.65203202	          0.53399880	         -0.22092867	          0.50401153	          0.49259277	         -0.28245743	          1.17456976	          0.43606072	         -0.41485856	          1.09304731	          0.31695094	         -0.44332474	          1.16182195	          0.22115347	         -0.37797885	          0.41065192	          0.62603599	         -0.27288879	          0.31244960	          0.40493427	         -0.30169412	          0.30042845	          0.45584309	         -0.21000738	          1.04751907	          0.09356330	         -0.32327488	          1.28262025	          0.09320682	         -0.33545249	          1.23267614	          0.03361377	         -0.41383209	          0.95184297	          1.51160440	         -0.50735595	          1.03967290	          1.48352711	         -0.19975247	          1.05891864	          1.45548510	         -0.33672615	          0.92810983	          1.52502373	         -0.33950182	          0.95240791	          1.39397109	         -0.10630195	          1.00291366	          1.33640182	         -0.08734235	          0.95358105	          1.26493475	         -0.02435478	          0.93180629	          1.20792099	          0.01357666	          0.90661050	          1.17478688	         -0.06695373	          0.82243961	          1.46154142	         -0.53076674	          0.81833285	          1.38083391	         -0.56630912	          0.72529273	          1.34652346	         -0.55945794	          0.68027853	          1.29059519	         -0.57106047	          0.69172245	          1.26439070	         -0.48599655	          1.02509343	          1.15642841	         -0.01663668	          1.14189774	          1.12090565	         -0.15327891	          1.14249932	          1.07878473	         -0.09896919	          0.72160265	          1.22069030	         -0.59227544	          0.90053306	          1.15265600	         -0.56391119	          0.86250173	          1.10604997	         -0.60269561	
